# xmcd CD database file
#
# Track frame offsets:
#	150
#	18326
#	39863
#	67554
#	95085
#	127481
#	155462
#	181197
#	199171
#	219173
#
# Disc length: 3199 seconds
#
# Revision: 1
# Processed by: cddbd v1.5.2PL0 Copyright (c) Steve Scherf et al.
# Submitted via: CDex 1.51
#
DISCID=7f0c7d0a
DTITLE=Cenk Erdoğan Trio - İle
DYEAR=2008
DGENRE=Jazz
TTITLE0=Sonbahar
TTITLE1=Ansızın
TTITLE2=Daddy Goes
TTITLE3=Tatlı Dillim
TTITLE4=Kına
TTITLE5=Dün
TTITLE6=Geçmiş Günler
TTITLE7=Limon
TTITLE8=Kuzey
TTITLE9=Sabah Bozlağı
EXTD=YEAR: 2008
EXTT0=
EXTT1=
EXTT2=
EXTT3=
EXTT4=
EXTT5=
EXTT6=
EXTT7=
EXTT8=
EXTT9=
PLAYORDER=
